<?xml version="1.0" encoding="utf-8"?>
<!-- Generator: Adobe Illustrator 16.0.0, SVG Export Plug-In . SVG Version: 6.00 Build 0)  -->
<!DOCTYPE svg PUBLIC "-//W3C//DTD SVG 1.1//EN" "http://www.w3.org/Graphics/SVG/1.1/DTD/svg11.dtd">
<svg version="1.1" id="Layer_10" xmlns="http://www.w3.org/2000/svg" xmlns:xlink="http://www.w3.org/1999/xlink" x="0px" y="0px"
	 width="100px" height="100px" viewBox="0 0 100 100" enable-background="new 0 0 100 100" xml:space="preserve">
<path d="M58.839,70.551c-1.554,0-2.817-1.264-2.817-2.816v-3.688c0-1.553,1.264-2.816,2.817-2.816h0.354
	c0.368-1.24,0.878-2.443,1.515-3.568l-0.312-0.311c-0.532-0.533-0.825-1.24-0.825-1.992c0-0.744,0.302-1.471,0.828-1.994
	l2.604-2.605c0.531-0.531,1.239-0.826,1.992-0.826c0.754,0,1.462,0.295,1.994,0.83l0.356,0.355c0.449-0.246,0.912-0.467,1.382-0.672
	c-2.198-0.625-3.812-2.645-3.812-5.043c0-2.896,2.35-5.246,5.247-5.246s5.246,2.35,5.246,5.246c0,0.303-0.031,0.596-0.08,0.885
	h2.041c1.553,0,2.816,1.262,2.816,2.816v0.564c0.997,0.287,1.968,0.67,2.899,1.131v-34.35H6.522v57.908h53.876l0.169-0.17
	c-0.628-1.152-1.124-2.379-1.473-3.639H58.839z M21.485,50.65c-2.897,0-5.247-2.348-5.247-5.246c0-2.896,2.35-5.246,5.247-5.246
	s5.246,2.35,5.246,5.246C26.731,48.303,24.383,50.65,21.485,50.65z M26.578,33.939c-0.042-0.119-0.104-0.23-0.199-0.326l-4.762-4.76
	c-0.341-0.342-0.895-0.342-1.236,0c-0.341,0.342-0.341,0.893,0,1.234l3.852,3.852H14.49c0-6.332,5.133-11.465,11.465-11.465
	c6.331,0,11.465,5.133,11.465,11.465H26.578z M45.824,50.65c-2.897,0-5.246-2.348-5.246-5.246c0-2.896,2.349-5.246,5.246-5.246
	s5.246,2.35,5.246,5.246C51.07,48.303,48.722,50.65,45.824,50.65z M64.819,22.475c6.332,0,11.465,5.133,11.465,11.465H65.689
	l2.941-4.402c0.269-0.4,0.16-0.943-0.241-1.213c-0.402-0.268-0.945-0.16-1.213,0.242l-3.591,5.373H53.354
	C53.354,27.607,58.487,22.475,64.819,22.475z M92.701,63.367h-2.152c-0.404-2.139-1.271-4.17-2.539-5.938l1.495-1.494
	c0.145-0.145,0.227-0.342,0.227-0.549s-0.082-0.404-0.227-0.549l-2.607-2.607c-0.304-0.303-0.795-0.303-1.098,0l-1.538,1.539
	c-1.753-1.199-3.744-2.014-5.824-2.383v-2.186c0-0.428-0.348-0.775-0.776-0.775h-3.688c-0.428,0-0.775,0.348-0.775,0.775v2.186
	c-2.098,0.371-4.103,1.195-5.866,2.41l-1.497-1.496c-0.303-0.305-0.794-0.305-1.098,0l-2.606,2.607
	c-0.146,0.145-0.228,0.342-0.228,0.549c0,0.205,0.082,0.402,0.228,0.549l1.466,1.465c-1.252,1.76-2.109,3.775-2.51,5.896H59.13
	c-0.429,0-0.776,0.348-0.776,0.777v3.686c0,0.43,0.348,0.777,0.776,0.777h1.892c0.356,2.139,1.182,4.184,2.415,5.986l-1.375,1.375
	c-0.303,0.305-0.303,0.795,0,1.098l2.607,2.609c0.145,0.145,0.343,0.227,0.549,0.227c0.205,0,0.403-0.082,0.549-0.227l1.331-1.332
	c1.817,1.301,3.902,2.18,6.101,2.57v1.859c0,0.428,0.348,0.775,0.775,0.775h3.688c0.429,0,0.776-0.348,0.776-0.775v-1.859
	c2.18-0.387,4.251-1.256,6.06-2.543l1.372,1.373c0.291,0.291,0.807,0.291,1.098,0l2.607-2.609c0.303-0.303,0.303-0.793,0-1.096
	l-1.403-1.404c1.249-1.813,2.084-3.873,2.442-6.027h2.088c0.429,0,0.776-0.348,0.776-0.777v-3.686
	C93.478,63.715,93.13,63.367,92.701,63.367z M75.916,74.172c-4.52,0-8.184-3.666-8.184-8.184c0-4.52,3.664-8.184,8.184-8.184
	c4.519,0,8.183,3.664,8.183,8.184C84.099,70.506,80.435,74.172,75.916,74.172z M79.021,65.988c0,1.713-1.391,3.104-3.104,3.104
	c-1.715,0-3.105-1.391-3.105-3.104c0-1.715,1.391-3.105,3.105-3.105C77.63,62.883,79.021,64.273,79.021,65.988z"/>
</svg>
